<svg width="88" height="89" viewBox="0 0 88 89" fill="none" xmlns="http://www.w3.org/2000/svg">
<g filter="url(#filter0_dd_291_2654)">
<rect x="9" y="5" width="70" height="70" rx="35" fill="#A92706"/>
<path d="M58.5688 28.334C58.5688 26.7299 57.2709 25.4175 55.6667 25.4175H32.3334C30.7292 25.4175 29.4167 26.7299 29.4167 28.334V45.833C29.4167 47.4371 30.7292 48.7495 32.3334 48.7495H52.7501L58.5834 54.5826L58.5688 28.334Z" fill="#E8E8E8"/>
<path d="M44 29.1672C41.5084 29.1672 39.2334 30.0672 37.475 31.5671C36.8834 32.0754 36.7584 32.942 37.1417 33.617L43.275 44.5414C43.5917 45.108 44.4084 45.108 44.725 44.5414L50.8584 33.617C51.2417 32.942 51.1167 32.0671 50.525 31.5671C48.775 30.0755 46.4917 29.1672 44 29.1672ZM39.8334 33.3337C39.8334 32.4171 40.5834 31.6671 41.5 31.6671C42.4167 31.6671 43.1667 32.4171 43.1667 33.3337C43.1667 34.2503 42.4167 35.0003 41.5 35.0003C40.5834 35.0003 39.8334 34.2503 39.8334 33.3337ZM44 40C43.0834 40 42.3334 39.25 42.3334 38.3334C42.3334 37.4168 43.0834 36.6668 44 36.6668C44.9167 36.6668 45.6667 37.4168 45.6667 38.3334C45.6667 39.25 44.9167 40 44 40Z" fill="#C93613"/>
</g>
<defs>
<filter id="filter0_dd_291_2654" x="0.279279" y="0.639639" width="87.4414" height="87.4414" filterUnits="userSpaceOnUse" color-interpolation-filters="sRGB">
<feFlood flood-opacity="0" result="BackgroundImageFix"/>
<feColorMatrix in="SourceAlpha" type="matrix" values="0 0 0 0 0 0 0 0 0 0 0 0 0 0 0 0 0 0 127 0" result="hardAlpha"/>
<feOffset dy="4.36036"/>
<feGaussianBlur stdDeviation="4.36036"/>
<feColorMatrix type="matrix" values="0 0 0 0 0.854902 0 0 0 0 0.0627451 0 0 0 0 0.0431373 0 0 0 0.14 0"/>
<feBlend mode="multiply" in2="BackgroundImageFix" result="effect1_dropShadow_291_2654"/>
<feColorMatrix in="SourceAlpha" type="matrix" values="0 0 0 0 0 0 0 0 0 0 0 0 0 0 0 0 0 0 127 0" result="hardAlpha"/>
<feOffset dy="2.18018"/>
<feGaussianBlur stdDeviation="2.18018"/>
<feColorMatrix type="matrix" values="0 0 0 0 0.854902 0 0 0 0 0.0627451 0 0 0 0 0.0431373 0 0 0 0.14 0"/>
<feBlend mode="multiply" in2="effect1_dropShadow_291_2654" result="effect2_dropShadow_291_2654"/>
<feBlend mode="normal" in="SourceGraphic" in2="effect2_dropShadow_291_2654" result="shape"/>
</filter>
</defs>
</svg>
