<svg width="700" height="636" viewBox="0 0 700 636" fill="none" xmlns="http://www.w3.org/2000/svg">
<path d="M350 159C355.802 159 361.366 161.094 365.468 164.821C369.57 168.549 371.875 173.604 371.875 178.875V298.125H503.125C508.927 298.125 514.491 300.219 518.593 303.946C522.695 307.674 525 312.729 525 318C525 323.271 522.695 328.326 518.593 332.054C514.491 335.781 508.927 337.875 503.125 337.875H371.875V457.125C371.875 462.396 369.57 467.451 365.468 471.179C361.366 474.906 355.802 477 350 477C344.198 477 338.634 474.906 334.532 471.179C330.43 467.451 328.125 462.396 328.125 457.125V337.875H196.875C191.073 337.875 185.509 335.781 181.407 332.054C177.305 328.326 175 323.271 175 318C175 312.729 177.305 307.674 181.407 303.946C185.509 300.219 191.073 298.125 196.875 298.125H328.125V178.875C328.125 173.604 330.43 168.549 334.532 164.821C338.634 161.094 344.198 159 350 159Z" fill="white"/>
</svg>
