<svg width="20" height="20" viewBox="0 0 20 20" fill="none" xmlns="http://www.w3.org/2000/svg">
<path d="M18.3375 11.5738L19.9789 4.35157C20.0974 3.83011 19.7011 3.33355 19.1663 3.33355H5.52806L5.20979 1.77765C5.13049 1.38984 4.78924 1.11133 4.39337 1.11133H0.833333C0.37309 1.11133 0 1.48442 0 1.94466V2.50022C0 2.96046 0.37309 3.33355 0.833333 3.33355H3.25983L5.69899 15.2584C5.11545 15.594 4.72222 16.2232 4.72222 16.9447C4.72222 18.0186 5.59278 18.8891 6.66667 18.8891C7.74056 18.8891 8.61111 18.0186 8.61111 16.9447C8.61111 16.4004 8.38726 15.9087 8.02695 15.5558H15.3064C14.9461 15.9087 14.7222 16.4004 14.7222 16.9447C14.7222 18.0186 15.5928 18.8891 16.6667 18.8891C17.7406 18.8891 18.6111 18.0186 18.6111 16.9447C18.6111 16.1748 18.1636 15.5095 17.5146 15.1945L17.7062 14.3516C17.8247 13.8301 17.4283 13.3336 16.8936 13.3336H7.57351L7.34625 12.2224H17.5249C17.914 12.2224 18.2513 11.9532 18.3375 11.5738Z" fill="#E8E8E8"/>
</svg>
