<svg width="32" height="33" viewBox="0 0 32 33" fill="none" xmlns="http://www.w3.org/2000/svg">
<path d="M0 16.1868C0 7.35021 7.16344 0.186768 16 0.186768C24.8366 0.186768 32 7.35021 32 16.1868C32 25.0233 24.8366 32.1868 16 32.1868C7.16344 32.1868 0 25.0233 0 16.1868Z" fill="white"/>
<path d="M18.7499 10.1891L17.0639 10.1868C15.1703 10.1868 13.946 11.346 13.946 13.1398V14.5016H12.2514C12.1052 14.5016 11.9863 14.6113 11.9863 14.7463V16.7192C11.9863 16.8542 12.1052 16.9639 12.2514 16.9639H13.9465V21.942C13.9465 22.077 14.0653 22.1867 14.2116 22.1867H16.4231C16.5694 22.1867 16.6882 22.077 16.6882 21.942L16.6877 16.9639H18.6697C18.8159 16.9639 18.9348 16.8542 18.9348 16.7192L18.9358 14.7463C18.9358 14.6816 18.9078 14.6193 18.8581 14.5733C18.8083 14.5274 18.7408 14.5016 18.6707 14.5016H16.6877V13.3475C16.6877 12.7925 16.8309 12.5113 17.6139 12.5113L18.7494 12.5108C18.8957 12.5108 19.0145 12.4011 19.0145 12.2661V10.4337C19.0145 10.2992 18.8962 10.1895 18.7499 10.189L18.7499 10.1891Z" fill="#172ACB"/>
</svg>
